<svg width="100%" height="100%" id="svg" viewBox="0 0 1440 390" xmlns="http://www.w3.org/2000/svg" class="transition duration-300 ease-in-out delay-150"><defs><linearGradient id="gradient" x1="94%" y1="74%" x2="6%" y2="26%"><stop offset="5%" stop-color="#17b7a1"></stop><stop offset="95%" stop-color="#9900ef"></stop></linearGradient></defs><path d="M 0,400 L 0,400 C 65.47435897435895,261.05384615384617 130.9487179487179,122.1076923076923 221,75 C 311.0512820512821,27.89230769230769 425.6794871794873,72.62307692307691 519,80 C 612.3205128205127,87.37692307692309 684.3333333333331,57.400000000000006 756,50 C 827.6666666666669,42.599999999999994 898.9871794871797,57.776923076923076 981,47 C 1063.0128205128203,36.223076923076924 1155.7179487179487,-0.5076923076923094 1234,54 C 1312.2820512820513,108.50769230769231 1376.1410256410256,254.25384615384615 1440,400 L 1440,400 L 0,400 Z" stroke="none" stroke-width="0" fill="url(#gradient)" fill-opacity="0.265" class="transition-all duration-300 ease-in-out delay-150 path-0"></path><defs><linearGradient id="gradient" x1="94%" y1="74%" x2="6%" y2="26%"><stop offset="5%" stop-color="#17b7a1"></stop><stop offset="95%" stop-color="#9900ef"></stop></linearGradient></defs><path d="M 0,400 L 0,400 C 66.98717948717947,300.70512820512823 133.97435897435895,201.4102564102564 226,157 C 318.02564102564105,112.58974358974358 435.08974358974365,123.06410256410254 514,130 C 592.9102564102564,136.93589743589746 633.6666666666665,140.33333333333334 706,142 C 778.3333333333335,143.66666666666666 882.2435897435896,143.6025641025641 975,125 C 1067.7564102564104,106.39743589743591 1149.3589743589746,69.25641025641028 1225,112 C 1300.6410256410254,154.74358974358972 1370.3205128205127,277.37179487179486 1440,400 L 1440,400 L 0,400 Z" stroke="none" stroke-width="0" fill="url(#gradient)" fill-opacity="0.4" class="transition-all duration-300 ease-in-out delay-150 path-1"></path><defs><linearGradient id="gradient" x1="94%" y1="74%" x2="6%" y2="26%"><stop offset="5%" stop-color="#17b7a1"></stop><stop offset="95%" stop-color="#9900ef"></stop></linearGradient></defs><path d="M 0,400 L 0,400 C 80.43846153846152,325.03076923076924 160.87692307692305,250.06153846153848 252,228 C 343.12307692307695,205.93846153846152 444.9307692307692,236.7846153846154 509,236 C 573.0692307692308,235.2153846153846 599.4000000000001,202.8 684,198 C 768.5999999999999,193.2 911.4692307692305,216.01538461538462 1001,219 C 1090.5307692307695,221.98461538461538 1126.723076923077,205.1384615384615 1191,232 C 1255.276923076923,258.8615384615385 1347.6384615384613,329.4307692307692 1440,400 L 1440,400 L 0,400 Z" stroke="none" stroke-width="0" fill="url(#gradient)" fill-opacity="0.53" class="transition-all duration-300 ease-in-out delay-150 path-2"></path><defs><linearGradient id="gradient" x1="94%" y1="74%" x2="6%" y2="26%"><stop offset="5%" stop-color="#17b7a1"></stop><stop offset="95%" stop-color="#9900ef"></stop></linearGradient></defs><path d="M 0,400 L 0,400 C 60.302564102564105,345.21794871794873 120.60512820512821,290.43589743589746 197,283 C 273.3948717948718,275.56410256410254 365.8820512820513,315.47435897435895 462,327 C 558.1179487179487,338.52564102564105 657.8666666666666,321.6666666666667 753,310 C 848.1333333333334,298.3333333333333 938.6512820512821,291.85897435897436 1000,285 C 1061.3487179487179,278.14102564102564 1093.528205128205,270.8974358974359 1162,290 C 1230.471794871795,309.1025641025641 1335.2358974358976,354.55128205128204 1440,400 L 1440,400 L 0,400 Z" stroke="none" stroke-width="0" fill="url(#gradient)" fill-opacity="1" class="transition-all duration-300 ease-in-out delay-150 path-3"></path></svg>