<?xml version="1.0" encoding="UTF-8"?>
<!DOCTYPE svg PUBLIC "-//W3C//DTD SVG 1.1//EN" "http://www.w3.org/Graphics/SVG/1.1/DTD/svg11.dtd">
<!-- Creator: CorelDRAW 2020 (64-Bit) -->
<svg xmlns="http://www.w3.org/2000/svg" xml:space="preserve" width="128px" height="128px" version="1.1" style="shape-rendering:geometricPrecision; text-rendering:geometricPrecision; image-rendering:optimizeQuality; fill-rule:evenodd; clip-rule:evenodd"
viewBox="0 0 128 128"
 xmlns:xlink="http://www.w3.org/1999/xlink"
 xmlns:xodm="http://www.corel.com/coreldraw/odm/2003">
 <defs>
  <style type="text/css">
   <![CDATA[
    .fil0 {fill:#FEFEFE}
   ]]>
  </style>
 </defs>
 <g id="图层_x0020_1">
  <metadata id="CorelCorpID_0Corel-Layer"/>
  <path class="fil0" d="M17.26 112.64c-3.64,-3.48 -6.72,-7.75 -8.83,-12.65 -1.93,-4.5 -3.05,-9.53 -3.05,-14.98 0,-8.94 2.79,-13.32 5.85,-18.1l0.1 -0.16c1.72,-2.69 3.52,-5.56 4.78,-9.74 1.29,-4.31 2.02,-10.08 1.55,-18.59l-0.27 -4.79 4.49 1.71c4.84,1.84 7.95,5.23 9.98,8.79 1.51,2.64 2.41,5.34 3,7.55 2.87,-1.61 5.65,-3.76 8.15,-6.36 2.84,-2.95 5.32,-6.49 7.19,-10.51 1.82,-3.93 3.07,-8.33 3.48,-13.08 0.38,-4.39 0.07,-9.07 -1.13,-13.97l-1.18 -4.84 4.87 1.06c5.24,1.14 10.01,3.04 14.25,5.58 4.37,2.63 8.16,5.94 11.32,9.81 2.87,3.51 5.21,7.47 6.96,11.78 1.13,2.78 2.02,5.7 2.66,8.74l0.18 -0.62c0.47,-1.76 0.76,-3.67 0.82,-5.58 0.06,-1.79 -0.09,-3.58 -0.47,-5.25l-2.12 -9.17 7.17 6.1c6.57,5.59 11.76,11.42 15.74,17.32 4.32,6.41 7.23,12.93 8.93,19.33 1.42,5.31 2,10.55 1.87,15.58 -0.14,5.34 -1.08,10.44 -2.68,15.16 -1.55,4.58 -3.73,8.83 -6.4,12.61 -2.72,3.82 -5.95,7.17 -9.57,9.9 -1.6,1.2 -5.5,3.26 -10.73,4.7 -3.53,0.97 -7.7,1.67 -12.22,1.66l-10.68 -0.04 12.65 -3.73c6.3,-1.83 11.72,-3.42 17.24,-7.57 3.11,-2.34 5.89,-5.23 8.24,-8.55 2.31,-3.27 4.2,-6.97 5.56,-10.98 1.41,-4.16 2.24,-8.65 2.36,-13.34 0.11,-4.45 -0.41,-9.09 -1.67,-13.81 -1.4,-5.28 -3.73,-10.67 -7.13,-16 -2.64,-4.15 -5.93,-8.28 -9.93,-12.31l-0.09 0.97c-0.18,1.59 -0.47,3.15 -0.86,4.61 -0.64,2.35 -1.56,4.52 -2.69,6.3 -1.14,1.78 -2.52,3.19 -4.06,4.02l-4.31 2.33 -0.28 -4.91c-0.27,-4.9 -1.22,-9.54 -2.8,-13.8 -1.57,-4.26 -3.77,-8.15 -6.52,-11.52 -2.47,-3.02 -5.4,-5.65 -8.76,-7.8 -2.63,-1.69 -5.51,-3.08 -8.63,-4.14 0.6,4.25 0.63,8.32 0.18,12.19 -0.57,5.01 -1.95,9.67 -3.91,13.88 -2.34,5.03 -5.53,9.44 -9.19,13.04 -3.86,3.81 -8.27,6.73 -12.78,8.57l-3.36 1.38c-0.21,-0.9 -1.08,-4.01 -1.08,-4.56 -0.36,-1.65 -0.95,-4.3 -2.16,-6.95 -0.78,-1.71 -1.83,-3.43 -3.25,-4.87 -0.05,6.71 -0.92,11.64 -2.18,15.55 -1.48,4.56 -3.48,7.69 -5.38,10.67 -1.29,2.01 -2.52,3.94 -3.41,6.22 -0.87,2.26 -1.44,4.93 -1.44,8.53 0,4.57 0.94,8.77 2.55,12.52 1.77,4.12 4.35,7.7 7.4,10.62 5.06,4.85 12.11,7.35 16.88,9.05 1.55,0.55 2.87,1.02 3.9,1.49l6.24 2.86 -6.86 0.11c-4.37,0.07 -8.78,-0.94 -12.65,-2.37 -5.48,-2.01 -9.99,-4.89 -11.83,-6.65zm48.05 -17.73c0,-1.7 -0.16,-3.17 -0.48,-4.4 -0.31,-1.17 -0.76,-2.14 -1.35,-2.91 -0.24,-0.32 -0.5,-0.59 -0.77,-0.82 -0.26,-0.22 -0.55,-0.4 -0.84,-0.55 -0.3,-0.14 -0.62,-0.25 -0.96,-0.32 -0.36,-0.08 -0.76,-0.11 -1.21,-0.11 -0.85,0 -1.59,0.14 -2.22,0.44 -0.62,0.3 -1.15,0.74 -1.6,1.34 -0.24,0.31 -0.46,0.68 -0.66,1.09 -0.2,0.4 -0.38,0.86 -0.53,1.37l-0.33 1.11 -6.37 0 0.46 -1.92c0.25,-1.05 0.58,-2.03 0.98,-2.91 0.4,-0.9 0.9,-1.74 1.47,-2.5 2.17,-2.89 5.21,-4.28 8.8,-4.28 3.64,0 6.55,1.43 8.74,4.27 1.05,1.37 1.84,3.01 2.36,4.9 0.5,1.83 0.76,3.9 0.76,6.2 0,4.75 -1.05,8.44 -3.15,11.07 -1.08,1.36 -2.36,2.38 -3.83,3.06 -1.46,0.69 -3.09,1.03 -4.88,1.03 -1.8,0 -3.43,-0.34 -4.89,-1.02 -1.46,-0.69 -2.74,-1.71 -3.82,-3.07 -0.6,-0.74 -1.12,-1.57 -1.54,-2.48 -0.41,-0.88 -0.75,-1.86 -1,-2.93l-0.46 -1.93 6.35 0 0.34 1.11c0.14,0.48 0.32,0.92 0.52,1.33 0.19,0.37 0.4,0.71 0.64,1.01 0.23,0.29 0.49,0.55 0.78,0.78 0.25,0.22 0.53,0.39 0.81,0.52 0.3,0.14 0.65,0.24 1.02,0.32 0.37,0.07 0.79,0.11 1.25,0.11 0.45,0 0.87,-0.04 1.25,-0.12 0.37,-0.07 0.71,-0.18 0.99,-0.31l0.02 -0.01c0.3,-0.14 0.58,-0.31 0.82,-0.5 0.28,-0.23 0.54,-0.49 0.77,-0.78 0.25,-0.31 0.48,-0.69 0.69,-1.13 0.22,-0.44 0.4,-0.94 0.55,-1.48 0.17,-0.6 0.3,-1.29 0.39,-2.06 0.08,-0.76 0.13,-1.6 0.13,-2.52zm-19.03 -43.23c2.43,-1.92 5.18,-3.36 8.24,-4.31 3.03,-0.95 6.36,-1.43 9.98,-1.43 1.28,0 2.59,0.05 3.93,0.15 1.3,0.09 2.63,0.23 3.98,0.42 1.35,0.19 2.61,0.41 3.76,0.66 1.18,0.25 2.28,0.53 3.29,0.85l1.1 0.34 0 15.27 -2.03 -0.63c-2.07,-0.65 -4.08,-1.14 -6.01,-1.46 -1.91,-0.31 -3.79,-0.47 -5.62,-0.47 -2.4,0 -4.49,0.32 -6.25,0.95 -1.72,0.61 -3.16,1.54 -4.32,2.76 -1.23,1.28 -2.25,2.79 -3.08,4.52 -0.41,0.87 -0.78,1.8 -1.1,2.79 1.23,-0.52 2.48,-0.95 3.77,-1.29 2.43,-0.64 4.95,-0.96 7.58,-0.96 3.56,0 6.69,0.55 9.4,1.63 2.76,1.11 5.07,2.77 6.9,4.99 1.37,1.66 2.48,3.58 3.32,5.76 0.84,2.15 1.41,4.55 1.73,7.19l0.22 1.74 -6.28 0 -0.17 -1.36c-0.09,-0.66 -0.2,-1.3 -0.33,-1.93 -0.12,-0.62 -0.27,-1.21 -0.43,-1.77 -0.32,-1.11 -0.73,-2.15 -1.22,-3.11 -0.48,-0.94 -1.03,-1.79 -1.65,-2.54 -0.59,-0.71 -1.24,-1.33 -1.97,-1.85 -0.73,-0.53 -1.54,-0.97 -2.44,-1.33 -0.96,-0.38 -2.02,-0.68 -3.19,-0.87 -1.18,-0.2 -2.48,-0.3 -3.89,-0.3 -8.35,0 -14.09,2.22 -20.3,8.15l2 -10.13c0.27,-1.34 0.6,-2.65 1.01,-3.91 0.4,-1.24 0.88,-2.44 1.43,-3.58 0.56,-1.18 1.19,-2.27 1.87,-3.29 0.71,-1.03 1.48,-1.98 2.3,-2.85 0.92,-0.96 1.95,-1.81 3.07,-2.53 1.12,-0.72 2.34,-1.31 3.67,-1.79 1.25,-0.45 2.57,-0.78 3.97,-1.01 1.4,-0.22 2.87,-0.33 4.38,-0.33 2.1,0 4.31,0.19 6.62,0.57l0.79 0.14 0 -2.37 -1.05 -0.2 -1.7 -0.27 -1.79 -0.22 -1.78 -0.16 -1.73 -0.09 -1.76 -0.03c-1.53,0 -2.96,0.1 -4.3,0.29 -1.34,0.18 -2.62,0.47 -3.82,0.84 -1.18,0.37 -2.28,0.82 -3.31,1.36 -1.02,0.54 -2,1.17 -2.93,1.91l-1.23 0.96 -3.85 -4.9 1.22 -0.97zm38.47 48.75c-0.41,2.8 -1.16,5.36 -2.22,7.68 -1.07,2.35 -2.48,4.44 -4.2,6.26 -2.3,2.45 -5.04,4.28 -8.23,5.5 -3.14,1.2 -6.72,1.8 -10.7,1.8l0 -6.25c1.64,0 3.17,-0.12 4.57,-0.35 1.39,-0.23 2.7,-0.58 3.91,-1.04 1.16,-0.44 2.23,-0.99 3.21,-1.64 0.98,-0.66 1.89,-1.42 2.7,-2.29 0.83,-0.88 1.56,-1.85 2.19,-2.91 0.63,-1.05 1.16,-2.21 1.59,-3.45 0.19,-0.56 0.37,-1.17 0.54,-1.82 0.15,-0.65 0.29,-1.3 0.4,-1.96l0.22 -1.32 6.29 0 -0.27 1.79z"/>
 </g>
</svg>
